/vscmnt/brussel_pixiu_data/_data_brussel/112/vsc11236/PredSimResults/SUBJ09mtu3D/worker1.mot
version=1
nRows=8
nColumns=50
inDegrees=yes
endheader
                time	         pelvis_tilt	         pelvis_list	     pelvis_rotation	           pelvis_tx	           pelvis_ty	           pelvis_tz	       hip_flexion_r	     hip_adduction_r	      hip_rotation_r	        knee_angle_r	       ankle_angle_r	         mtp_angle_r	       hip_flexion_l	     hip_adduction_l	      hip_rotation_l	        knee_angle_l	       ankle_angle_l	         mtp_angle_l	    lumbar_extension	      lumbar_bending	     lumbar_rotation	 ercspn_r/activation	 intobl_r/activation	 extobl_r/activation	    abd_r/activation	    add_r/activation	hamstrings_r/activation	bifemsh_r/activation	glut_max_r/activation	iliopsoas_r/activation	rect_fem_r/activation	  vasti_r/activation	gastroc_r/activation	 soleus_r/activation	tib_ant_r/activation	 ercspn_l/activation	 intobl_l/activation	 extobl_l/activation	    abd_l/activation	    add_l/activation	hamstrings_l/activation	bifemsh_l/activation	glut_max_l/activation	iliopsoas_l/activation	rect_fem_l/activation	  vasti_l/activation	gastroc_l/activation	 soleus_l/activation	tib_ant_l/activation	
          0.00000000	         -5.16070202	         -1.28890851	          8.48213441	          0.00000000	          0.98923702	         -0.00333356	         25.33965633	         -0.49314846	         -1.22118023	          2.33708983	          5.10494133	          0.27245236	        -10.50891684	         -1.68924953	          4.80871200	        -13.04711885	          8.34647140	         32.19411791	        -13.49016561	         -0.81234070	         -3.06096996	          0.01317057	          0.18964938	          0.04388296	          0.04568726	          0.09629476	          0.06423018	          0.27949493	          0.06567529	          0.06455865	          0.00999999	          0.00999999	          0.04362957	          0.01301583	          0.23664916	          0.00999999	          0.00999999	          0.04122328	          0.02906880	          0.02372578	          0.02730558	          0.25936328	          0.01737471	          0.06312580	          0.00999999	          0.00999999	          0.31219580	          0.24019213	          0.00999999	
          0.01213132	         -5.11058558	         -1.30127458	          8.39168187	          0.01946170	          0.98706238	         -0.00322126	         25.02831572	         -0.27511292	         -1.31921419	          0.93108332	          4.35436812	          0.22261635	        -11.15522930	         -1.79810201	          4.39958628	        -14.02534503	          7.44146300	         33.85996377	        -13.04281505	         -0.45064733	         -3.09650646	          0.01095549	          0.17684371	          0.03650255	          0.08992718	          0.08009953	          0.06041325	          0.23248839	          0.09025995	          0.05370092	          0.00999999	          0.00999999	          0.03629178	          0.01202188	          0.28741538	          0.00999999	          0.00999999	          0.07121609	          0.02417990	          0.03273781	          0.03251416	          0.21574256	          0.01445256	          0.08638378	          0.00999999	          0.00999999	          0.28804408	          0.20146720	          0.00999999	
          0.02426265	         -5.06356709	         -1.33526582	          8.24874471	          0.03880648	          0.98536608	         -0.00305107	         24.62717804	         -0.03752842	         -1.39241928	         -0.28826539	          3.52427588	          0.20447355	        -11.49395167	         -1.89596409	          3.94864417	        -15.51177382	          6.37694104	         35.48962573	        -12.61172738	         -0.05456649	         -3.11927290	          0.00999999	          0.14710145	          0.03036341	          0.14205246	          0.07584807	          0.06207098	          0.19338760	          0.13660888	          0.04466930	          0.00999999	          0.00999999	          0.03018809	          0.00999999	          0.33861076	          0.00999999	          0.00999999	          0.05923870	          0.02011323	          0.04225743	          0.03713613	          0.17945814	          0.01202188	          0.10992839	          0.00999999	          0.00999999	          0.24897145	          0.16758367	          0.00999999	
          0.03639397	         -5.02588523	         -1.38918029	          8.05597102	          0.05766536	          0.98445946	         -0.00283323	         24.19871197	          0.22768801	         -1.41642992	         -1.39188374	          2.75736759	          0.15379461	        -11.40710225	         -1.97585388	          3.46922394	        -17.64945865	          5.13005546	         36.92187313	        -12.23716178	          0.37770351	         -3.12591830	          0.00999999	          0.12236136	          0.02525678	          0.18949537	          0.10087207	          0.05821811	          0.16086292	          0.17049345	          0.03715664	          0.00999999	          0.00999999	          0.02511094	          0.00999999	          0.36055523	          0.03268741	          0.00999999	          0.04927570	          0.01673051	          0.06564317	          0.03281710	          0.14927618	          0.00999999	          0.13717499	          0.00999999	          0.00999999	          0.20709847	          0.13939880	          0.00999999	
          0.04852530	         -4.99903096	         -1.45034704	          7.81477023	          0.07583451	          0.98449602	         -0.00259347	         23.77990641	          0.50460073	         -1.39976397	         -2.49759699	          2.39144561	          0.11227823	        -10.82845214	         -2.02695316	          2.98040364	        -20.52406934	          3.76284804	         37.78971561	        -11.94107631	          0.83441676	         -3.11119356	          0.00999999	          0.10178215	          0.02100899	          0.22168368	          0.11529744	          0.05615676	          0.13380838	          0.19368657	          0.03090749	          0.00999999	          0.00999999	          0.02088768	          0.01183821	          0.34955092	          0.06377864	          0.00999999	          0.04098832	          0.01391671	          0.08534764	          0.02729780	          0.12417033	          0.00999999	          0.13878480	          0.00999999	          0.00999999	          0.17226785	          0.11595417	          0.00999999	
          0.06065662	         -4.98307863	         -1.50248856	          7.52539247	          0.09323297	          0.98553501	         -0.00236539	         23.35178927	          0.77375820	         -1.34562706	         -3.54154608	          2.32045680	          0.08354364	         -9.74627713	         -2.03991929	          2.49938796	        -24.13387876	          2.31899897	         37.71527764	        -11.73101847	          1.29849935	         -3.07099730	          0.00999999	          0.08466404	          0.01747562	          0.23195563	          0.12902238	          0.05158889	          0.11130397	          0.19841789	          0.02570935	          0.00999999	          0.02607575	          0.01737471	          0.02066166	          0.32749380	          0.08839720	          0.00999999	          0.03409475	          0.01157614	          0.10196790	          0.02270675	          0.10328689	          0.00999999	          0.11544344	          0.00999999	          0.00999999	          0.14329517	          0.09645255	          0.00999999	
          0.07278795	         -4.97570745	         -1.52893471	          7.18543684	          0.10992610	          0.98746872	         -0.00218204	         22.87800078	          1.01755892	         -1.24936374	         -4.45058679	          2.43344756	          0.06972986	         -8.22435757	         -2.00439876	          2.05716685	        -28.31825525	          0.65418230	         36.70460618	        -11.59801030	          1.75108519	         -3.00027058	          0.00999999	          0.07042491	          0.01453650	          0.23050703	          0.14176270	          0.04964826	          0.09258443	          0.17789186	          0.02138545	          0.00999999	          0.02169023	          0.01445256	          0.02224527	          0.29722422	          0.08360577	          0.00999999	          0.03760225	          0.00999999	          0.11329714	          0.01888784	          0.08591570	          0.00999999	          0.09602772	          0.00999999	          0.00999999	          0.11919524	          0.08023079	          0.01930084	
          0.08491927	         -4.97371757	         -1.52262467	          6.79907774	          0.12605331	          0.99002264	         -0.00207053	         22.33650066	          1.22664535	         -1.10274182	         -5.19109320	          2.63800058	          0.06964377	         -6.36903131	         -1.91557229	          1.69046129	        -32.86750794	         -1.18611276	         34.61406477	        -11.52362915	          2.18262654	         -2.90020772	          0.00999999	          0.05858058	          0.01209170	          0.22109527	          0.13082128	          0.04658405	          0.07701323	          0.15680220	          0.01778876	          0.00999999	          0.02948012	          0.01202188	          0.01850397	          0.26962774	          0.09853353	          0.03980919	          0.06175579	          0.00999999	          0.09424239	          0.01571121	          0.07146607	          0.00999999	          0.07987740	          0.00999999	          0.00999999	          0.09914852	          0.06673726	          0.05636435	
